<svg
  xmlns="http://www.w3.org/2000/svg"
  width="188"
  height="60"
  viewBox="0 0 188 60"
  fill="none"
  shape-rendering="geometricPrecision"
>
  <view id="mark" viewBox="133 8 44 44" preserveAspectRatio="xMidYMid meet" />

  <defs>
    <clipPath id="logo-frame">
      <rect x="0.6" y="0.6" width="186.8" height="58.8" rx="17.4" />
    </clipPath>
  </defs>

  <g clip-path="url(#logo-frame)">
    <rect width="188" height="60" fill="#1E40AF" />
    <rect width="125" height="60" fill="#fff" />
  </g>

  <rect
    x="0.6"
    y="0.6"
    width="186.8"
    height="58.8"
    rx="17.4"
    stroke="#fff"
    stroke-width="1.2"
  />

  <!-- iCORE converted to outlines from Segoe UI Black. -->
  <path
    fill="#1E40AF"
    fill-rule="evenodd"
    d="M22 19.81
      C22 20.79 21.65 21.58 20.93 22.19
      C20.22 22.8 19.29 23.1 18.13 23.1
      C17 23.1 16.07 22.78 15.35 22.15
      C14.63 21.53 14.27 20.74 14.27 19.81
      C14.27 18.86 14.62 18.08 15.32 17.49
      C16.02 16.9 16.96 16.6 18.13 16.6
      C19.29 16.6 20.22 16.9 20.93 17.49
      C21.65 18.08 22 18.86 22 19.81Z
      M14.66 40.97V24.3H21.59V40.97Z
      M42.93 40.34
      C41 41.03 38.77 41.38 36.24 41.38
      C33.76 41.38 31.61 40.9 29.81 39.95
      C28.01 39 26.64 37.65 25.69 35.9
      C24.74 34.15 24.26 32.13 24.26 29.84
      C24.26 27.37 24.79 25.18 25.86 23.26
      C26.92 21.34 28.42 19.86 30.37 18.81
      C32.31 17.76 34.54 17.24 37.07 17.24
      C39.09 17.24 41.04 17.48 42.93 17.97V24.47
      C42.28 24.08 41.5 23.77 40.6 23.55
      C39.7 23.34 38.79 23.23 37.87 23.23
      C35.96 23.23 34.45 23.78 33.35 24.87
      C32.25 25.97 31.7 27.46 31.7 29.33
      C31.7 31.2 32.25 32.67 33.35 33.75
      C34.45 34.83 35.93 35.37 37.77 35.37
      C39.48 35.37 41.2 34.94 42.93 34.07Z
      M68.76 29.24
      C68.76 31.58 68.26 33.68 67.25 35.53
      C66.24 37.38 64.83 38.81 63.02 39.84
      C61.2 40.86 59.18 41.38 56.93 41.38
      C54.74 41.38 52.74 40.88 50.95 39.89
      C49.15 38.89 47.75 37.5 46.76 35.7
      C45.76 33.91 45.26 31.88 45.26 29.61
      C45.26 27.23 45.76 25.1 46.77 23.2
      C47.78 21.3 49.2 19.83 51.02 18.79
      C52.84 17.76 54.92 17.24 57.24 17.24
      C59.47 17.24 61.47 17.74 63.24 18.73
      C65 19.72 66.36 21.14 67.32 22.98
      C68.28 24.82 68.76 26.9 68.76 29.24Z
      M61.31 29.43
      C61.31 27.51 60.94 26 60.2 24.89
      C59.46 23.78 58.45 23.23 57.17 23.23
      C55.77 23.23 54.68 23.76 53.9 24.82
      C53.12 25.89 52.73 27.39 52.73 29.33
      C52.73 31.23 53.12 32.71 53.89 33.78
      C54.67 34.84 55.72 35.37 57.06 35.37
      C57.87 35.37 58.61 35.13 59.26 34.65
      C59.91 34.18 60.41 33.49 60.77 32.6
      C61.13 31.71 61.31 30.66 61.31 29.43Z
      M84.18 40.97L82.43 35.94
      C82.1 34.95 81.66 34.18 81.12 33.61
      C80.59 33.05 80 32.77 79.37 32.77H79.1V40.97H72.07V17.63H81.41
      C84.67 17.63 87.09 18.16 88.64 19.23
      C90.2 20.3 90.98 21.91 90.98 24.04
      C90.98 25.65 90.53 26.99 89.62 28.08
      C88.71 29.16 87.37 29.95 85.57 30.44V30.5
      C86.56 30.81 87.38 31.3 88.04 31.99
      C88.7 32.67 89.29 33.68 89.81 35.03L92.1 40.97Z
      M83.51 25.04
      C83.51 24.25 83.27 23.64 82.79 23.18
      C82.31 22.72 81.57 22.5 80.55 22.5H79.1V27.84H80.37
      C81.31 27.84 82.07 27.57 82.65 27.04
      C83.22 26.51 83.51 25.84 83.51 25.04Z
      M94.8 40.97V17.63H109.34V23.13H101.83V26.53H108.88V32.03H101.83V35.47H109.87V40.97Z"
  />

  <!-- 4 You mark, traced from the original raster and kept inside the same SVG. -->
  <g transform="translate(133 8) scale(0.11311054)" fill="#fff">
    <path d="M49 193
      C49.04 185.71 49.82 178.36 50.92 171.14
      C52.02 163.92 53.52 156.69 55.6 149.7
      C57.69 142.71 60.32 135.79 63.43 129.18
      C66.54 122.58 70.21 116.16 74.27 110.1
      C78.33 104.03 82.88 98.18 87.79 92.79
      C92.7 87.39 98.15 82.4 103.76 77.72
      C109.36 73.05 115.25 68.59 121.43 64.72
      C127.61 60.84 134.15 57.41 140.83 54.46
      C147.5 51.51 154.44 48.94 161.47 47.01
      C168.5 45.08 175.78 43.74 183.03 42.91
      C190.27 42.07 197.66 41.74 204.95 42
      C212.23 42.26 219.61 43 226.74 44.48
      C233.87 45.97 241.1 47.95 247.72 50.92
      C254.33 53.9 261.33 57.42 266.43 62.33
      C271.53 67.23 276.72 73.77 278.31 80.35
      C279.89 86.93 278.88 95.7 275.95 101.83
      C273.02 107.96 266.8 113.86 260.73 117.13
      C254.66 120.39 246.64 121.51 239.54 121.42
      C232.44 121.32 225.33 117.77 218.14 116.56
      C210.94 115.35 203.58 113.9 196.35 114.18
      C189.13 114.46 181.69 115.99 174.8 118.24
      C167.92 120.49 161.04 123.67 155.03 127.68
      C149.03 131.69 143.43 136.77 138.77 142.3
      C134.12 147.83 130.06 154.24 127.12 160.85
      C124.17 167.45 122.12 174.77 121.1 181.93
      C120.08 189.08 120.1 196.61 121.02 203.78
      C121.93 210.95 123.77 218.31 126.6 224.95
      C129.42 231.6 133.38 238.08 137.97 243.66
      C142.55 249.23 148.11 254.38 154.1 258.4
      C160.08 262.42 166.98 265.68 173.89 267.78
      C180.79 269.88 188.32 270.95 195.54 271
      C202.77 271.05 210.31 270.07 217.24 268.06
      C224.17 266.05 231.12 262.89 237.13 258.91
      C243.14 254.94 248.76 249.81 253.3 244.22
      C257.84 238.63 261.75 232.07 264.37 225.37
      C266.98 218.67 268.48 211.23 269 204.02
      C269.52 196.82 268.17 189.41 267.49 182.16
      C266.81 174.92 263.41 167.14 264.92 160.56
      C266.44 153.97 271.11 146.05 276.57 142.64
      C282.03 139.23 291.22 138.39 297.67 140.08
      C304.12 141.77 310.49 147.5 315.25 152.77
      C320.01 158.03 323.49 164.98 326.25 171.67
      C329 178.36 330.66 185.7 331.78 192.89
      C332.91 200.08 333.26 207.52 332.99 214.8
      C332.73 222.08 331.72 229.43 330.18 236.56
      C328.65 243.68 326.49 250.78 323.78 257.54
      C321.06 264.31 317.74 270.94 313.91 277.14
      C310.07 283.33 305.56 289.21 300.79 294.71
      C296.01 300.22 290.83 305.47 285.26 310.17
      C279.69 314.86 273.61 319.12 267.36 322.87
      C261.1 326.63 254.5 329.99 247.73 332.7
      C240.96 335.41 233.87 337.59 226.75 339.14
      C219.63 340.69 212.29 341.56 205.01 342
      C197.72 342.44 190.3 342.44 183.04 341.79
      C175.77 341.14 168.47 339.88 161.39 338.09
      C154.32 336.29 147.32 333.87 140.59 331.03
      C133.86 328.2 127.27 324.86 121.02 321.09
      C114.76 317.33 108.73 313.06 103.06 308.45
      C97.4 303.85 91.92 298.87 87.02 293.47
      C82.13 288.06 77.7 282.13 73.69 276.03
      C69.68 269.94 66.02 263.51 62.95 256.89
      C59.88 250.28 57.3 243.35 55.25 236.34
      C53.21 229.34 51.7 222.1 50.66 214.88
      C49.62 207.65 48.96 200.29 49 193Z" />
    <ellipse cx="199.15" cy="195.32" rx="39.43" ry="40.41" />
  </g>
</svg>
