<svg xmlns="http://www.w3.org/2000/svg" viewBox="0 0 389 389" fill="none">
  <path
    fill="#fff"
    d="M49 193
      C49.04 185.71 49.82 178.36 50.92 171.14
      C52.02 163.92 53.52 156.69 55.6 149.7
      C57.69 142.71 60.32 135.79 63.43 129.18
      C66.54 122.58 70.21 116.16 74.27 110.1
      C78.33 104.03 82.88 98.18 87.79 92.79
      C92.7 87.39 98.15 82.4 103.76 77.72
      C109.36 73.05 115.25 68.59 121.43 64.72
      C127.61 60.84 134.15 57.41 140.83 54.46
      C147.5 51.51 154.44 48.94 161.47 47.01
      C168.5 45.08 175.78 43.74 183.03 42.91
      C190.27 42.07 197.66 41.74 204.95 42
      C212.23 42.26 219.61 43 226.74 44.48
      C233.87 45.97 241.1 47.95 247.72 50.92
      C254.33 53.9 261.33 57.42 266.43 62.33
      C271.53 67.23 276.72 73.77 278.31 80.35
      C279.89 86.93 278.88 95.7 275.95 101.83
      C273.02 107.96 266.8 113.86 260.73 117.13
      C254.66 120.39 246.64 121.51 239.54 121.42
      C232.44 121.32 225.33 117.77 218.14 116.56
      C210.94 115.35 203.58 113.9 196.35 114.18
      C189.13 114.46 181.69 115.99 174.8 118.24
      C167.92 120.49 161.04 123.67 155.03 127.68
      C149.03 131.69 143.43 136.77 138.77 142.3
      C134.12 147.83 130.06 154.24 127.12 160.85
      C124.17 167.45 122.12 174.77 121.1 181.93
      C120.08 189.08 120.1 196.61 121.02 203.78
      C121.93 210.95 123.77 218.31 126.6 224.95
      C129.42 231.6 133.38 238.08 137.97 243.66
      C142.55 249.23 148.11 254.38 154.1 258.4
      C160.08 262.42 166.98 265.68 173.89 267.78
      C180.79 269.88 188.32 270.95 195.54 271
      C202.77 271.05 210.31 270.07 217.24 268.06
      C224.17 266.05 231.12 262.89 237.13 258.91
      C243.14 254.94 248.76 249.81 253.3 244.22
      C257.84 238.63 261.75 232.07 264.37 225.37
      C266.98 218.67 268.48 211.23 269 204.02
      C269.52 196.82 268.17 189.41 267.49 182.16
      C266.81 174.92 263.41 167.14 264.92 160.56
      C266.44 153.97 271.11 146.05 276.57 142.64
      C282.03 139.23 291.22 138.39 297.67 140.08
      C304.12 141.77 310.49 147.5 315.25 152.77
      C320.01 158.03 323.49 164.98 326.25 171.67
      C329 178.36 330.66 185.7 331.78 192.89
      C332.91 200.08 333.26 207.52 332.99 214.8
      C332.73 222.08 331.72 229.43 330.18 236.56
      C328.65 243.68 326.49 250.78 323.78 257.54
      C321.06 264.31 317.74 270.94 313.91 277.14
      C310.07 283.33 305.56 289.21 300.79 294.71
      C296.01 300.22 290.83 305.47 285.26 310.17
      C279.69 314.86 273.61 319.12 267.36 322.87
      C261.1 326.63 254.5 329.99 247.73 332.7
      C240.96 335.41 233.87 337.59 226.75 339.14
      C219.63 340.69 212.29 341.56 205.01 342
      C197.72 342.44 190.3 342.44 183.04 341.79
      C175.77 341.14 168.47 339.88 161.39 338.09
      C154.32 336.29 147.32 333.87 140.59 331.03
      C133.86 328.2 127.27 324.86 121.02 321.09
      C114.76 317.33 108.73 313.06 103.06 308.45
      C97.4 303.85 91.92 298.87 87.02 293.47
      C82.13 288.06 77.7 282.13 73.69 276.03
      C69.68 269.94 66.02 263.51 62.95 256.89
      C59.88 250.28 57.3 243.35 55.25 236.34
      C53.21 229.34 51.7 222.1 50.66 214.88
      C49.62 207.65 48.96 200.29 49 193Z"
  />
  <ellipse cx="199.15" cy="195.32" rx="39.43" ry="40.41" fill="#fff" />
</svg>
